<?xml version="1.0" encoding="UTF-8"?>
<svg version="1.1" xmlns="http://www.w3.org/2000/svg" width="64" height="64">
<path d="M0 0 C15.84 0 31.68 0 48 0 C48 1.32 48 2.64 48 4 C46.68 4 45.36 4 44 4 C44 5.32 44 6.64 44 8 C42.68 8 41.36 8 40 8 C40 9.32 40 10.64 40 12 C38.68 12 37.36 12 36 12 C36 13.32 36 14.64 36 16 C34.68 16 33.36 16 32 16 C32 17.32 32 18.64 32 20 C35.96 20 39.92 20 44 20 C44 21.32 44 22.64 44 24 C42.68 24 41.36 24 40 24 C40 25.32 40 26.64 40 28 C38.68 28 37.36 28 36 28 C36 29.32 36 30.64 36 32 C34.68 32 33.36 32 32 32 C32 33.32 32 34.64 32 36 C30.68 36 29.36 36 28 36 C28 37.32 28 38.64 28 40 C26.68 40 25.36 40 24 40 C24 41.32 24 42.64 24 44 C22.68 44 21.36 44 20 44 C20 45.32 20 46.64 20 48 C18.68 48 17.36 48 16 48 C16 49.32 16 50.64 16 52 C14.68 52 13.36 52 12 52 C12 53.32 12 54.64 12 56 C10.68 56 9.36 56 8 56 C8 57.32 8 58.64 8 60 C6.68 60 5.36 60 4 60 C4 61.32 4 62.64 4 64 C2.68 64 1.36 64 0 64 C0 61.36 0 58.72 0 56 C1.32 56 2.64 56 4 56 C4 53.36 4 50.72 4 48 C5.32 48 6.64 48 8 48 C8 45.36 8 42.72 8 40 C0.08 40 -7.84 40 -16 40 C-16 37.36 -16 34.72 -16 32 C-14.68 32 -13.36 32 -12 32 C-12 29.36 -12 26.72 -12 24 C-10.68 24 -9.36 24 -8 24 C-8 21.36 -8 18.72 -8 16 C-6.68 16 -5.36 16 -4 16 C-4 13.36 -4 10.72 -4 8 C-2.68 8 -1.36 8 0 8 C0 5.36 0 2.72 0 0 Z M4 8 C4 10.64 4 13.28 4 16 C2.68 16 1.36 16 0 16 C0 18.64 0 21.28 0 24 C-1.32 24 -2.64 24 -4 24 C-4 25.32 -4 26.64 -4 28 C-2.68 28 -1.36 28 0 28 C0 29.32 0 30.64 0 32 C1.32 32 2.64 32 4 32 C4 30.68 4 29.36 4 28 C5.32 28 6.64 28 8 28 C8 29.32 8 30.64 8 32 C9.32 32 10.64 32 12 32 C12 30.68 12 29.36 12 28 C13.32 28 14.64 28 16 28 C16 26.68 16 25.36 16 24 C17.32 24 18.64 24 20 24 C20 22.68 20 21.36 20 20 C21.32 20 22.64 20 24 20 C24 18.68 24 17.36 24 16 C25.32 16 26.64 16 28 16 C28 14.68 28 13.36 28 12 C29.32 12 30.64 12 32 12 C32 10.68 32 9.36 32 8 C22.76 8 13.52 8 4 8 Z M16 28 C16 29.32 16 30.64 16 32 C17.32 32 18.64 32 20 32 C20 30.68 20 29.36 20 28 C18.68 28 17.36 28 16 28 Z M24 28 C24 29.32 24 30.64 24 32 C25.32 32 26.64 32 28 32 C28 30.68 28 29.36 28 28 C26.68 28 25.36 28 24 28 Z " fill="#0000ff" transform="translate(16,0)"/>
<path d="M0 0 C1.32 0 2.64 0 4 0 C4 1.32 4 2.64 4 4 C2.68 4 1.36 4 0 4 C0 2.68 0 1.36 0 0 Z " fill="#0000ff" transform="translate(24,24)"/>
<path d="M0 0 C1.32 0 2.64 0 4 0 C4 1.32 4 2.64 4 4 C2.68 4 1.36 4 0 4 C0 2.68 0 1.36 0 0 Z " fill="#0000ff" transform="translate(16,24)"/>
</svg>
