<?xml version="1.0" encoding="UTF-8" standalone="no"?>
<!DOCTYPE svg PUBLIC "-//W3C//DTD SVG 1.1//EN" "http://www.w3.org/Graphics/SVG/1.1/DTD/svg11.dtd">
<svg width="100%" height="100%" viewBox="0 0 1236 1646" version="1.1" xmlns="http://www.w3.org/2000/svg" xmlns:xlink="http://www.w3.org/1999/xlink" xml:space="preserve" xmlns:serif="http://www.serif.com/" style="fill-rule:evenodd;clip-rule:evenodd;stroke-linejoin:round;stroke-miterlimit:2;">
    <g transform="matrix(1,0,0,1,-375.199128,-243.353611)">
        <g transform="matrix(0.712611,-0,0,0.712611,-443.408195,530.295934)">
            <path d="M1187.965,391.622C1188.215,375.102 1194.357,267.71 1306.884,101.614C1393.713,-26.548 1498.193,-122.373 1649.47,-171.111C1699.718,-187.3 1753.656,-159.648 1769.845,-109.401C1786.034,-59.153 1758.382,-5.215 1708.134,10.974C1599.893,45.847 1527.389,117.21 1465.262,208.913C1384.152,328.636 1379.552,386.13 1379.198,399.085C1378.528,423.563 1371.48,437.246 1368.839,442.528C1345.23,489.746 1287.727,508.914 1240.509,485.305C1204.459,467.28 1184.76,429.499 1187.965,391.622Z" style="fill:none;stroke:white;stroke-width:77.77px;"/>
            <path d="M1187.965,391.622C1188.215,375.102 1194.357,267.71 1306.884,101.614C1393.713,-26.548 1498.193,-122.373 1649.47,-171.111C1699.718,-187.3 1753.656,-159.648 1769.845,-109.401C1786.034,-59.153 1758.382,-5.215 1708.134,10.974C1599.893,45.847 1527.389,117.21 1465.262,208.913C1384.152,328.636 1379.552,386.13 1379.198,399.085C1378.528,423.563 1371.48,437.246 1368.839,442.528C1345.23,489.746 1287.727,508.914 1240.509,485.305C1204.459,467.28 1184.76,429.499 1187.965,391.622Z" style="fill:rgb(0,0,255);"/>
        </g>
        <g transform="matrix(-0.712611,-0,-0,0.712611,2429.078798,536.136962)">
            <path d="M1187.965,391.622C1184.76,429.499 1204.459,467.28 1240.509,485.305C1287.727,508.914 1345.23,489.746 1368.839,442.528C1371.48,437.246 1378.528,423.563 1379.198,399.085C1379.552,386.13 1384.152,328.636 1465.262,208.913C1527.389,117.21 1599.893,45.847 1708.134,10.974C1758.382,-5.215 1786.034,-59.153 1769.845,-109.401C1753.656,-159.648 1699.718,-187.3 1649.47,-171.111C1498.193,-122.373 1393.713,-26.548 1306.884,101.614C1194.357,267.71 1188.215,375.102 1187.965,391.622Z" style="fill:none;stroke:white;stroke-width:77.77px;"/>
            <path d="M1187.965,391.622C1184.76,429.499 1204.459,467.28 1240.509,485.305C1287.727,508.914 1345.23,489.746 1368.839,442.528C1371.48,437.246 1378.528,423.563 1379.198,399.085C1379.552,386.13 1384.152,328.636 1465.262,208.913C1527.389,117.21 1599.893,45.847 1708.134,10.974C1758.382,-5.215 1786.034,-59.153 1769.845,-109.401C1753.656,-159.648 1699.718,-187.3 1649.47,-171.111C1498.193,-122.373 1393.713,-26.548 1306.884,101.614C1194.357,267.71 1188.215,375.102 1187.965,391.622Z" style="fill:rgb(0,0,255);"/>
        </g>
        <path d="M1331.409,423.376L653.369,423.376C736.543,329.945 1248.234,329.945 1331.409,423.376Z" style="fill:none;stroke:white;stroke-width:55.42px;"/>
        <path d="M1331.409,423.376L653.369,423.376C736.543,329.945 1248.234,329.945 1331.409,423.376Z" style="fill:rgb(0,0,255);"/>
        <path d="M653.369,423.376L1331.409,423.376C1402.814,503.586 1446.236,609.232 1446.236,724.876C1446.236,975.224 1242.737,1178.723 992.389,1178.723C742.041,1178.723 538.541,975.224 538.541,724.876C538.541,609.232 581.964,503.586 653.369,423.376Z" style="fill:rgb(0,0,255);"/>
        <g transform="matrix(3.574081,0,-0,3.065699,209.945612,302.919237)">
            <path d="M218.834,348.784L200.997,309.431L238.032,309.431L219.167,348.801L240.819,492.768L219.098,517.205L197.025,492.768L218.834,348.784Z" style="fill:rgb(12,0,255);"/>
        </g>
        <g transform="matrix(0.332093,-0,-0,-0.332093,-619.831944,4495.333769)">
            <path d="M4558.074,12606.865C4531.36,12620.292 4501.291,12628.064 4469.417,12628.58C4020.261,12635.862 3633.635,12210.424 3487.233,11848.198C3167.882,11058.067 3211.153,10765.538 3223.616,10713.214C3235.335,10652.725 3274.022,10598.142 3333.337,10568.485C3434.658,10517.824 3558.048,10558.954 3608.708,10660.275C3618.484,10679.827 3645.54,10728.257 3621.552,10814.409C3613.17,10844.513 3593.455,10984.467 3810.952,11550.271C3607.946,10909.408 3819.66,10492.348 3819.66,10492.348C3868.701,10390.234 3991.42,10347.144 4093.535,10396.185C4195.65,10445.226 4238.739,10567.945 4189.698,10670.06C4189.698,10670.06 4035.371,11018.628 4244.367,11544.04C4314.696,11720.845 4437.001,11935.107 4588.285,12099.028C4546.585,11939.846 4526.748,11766.075 4546.278,11595.46C4559.161,11482.914 4660.993,11402.001 4773.539,11414.883C4886.084,11427.766 4966.998,11529.598 4954.115,11642.144C4930.64,11847.222 4987.7,12058.56 5064.36,12215.454C5093.534,12190.21 5121.433,12161.728 5148.301,12131.366C5294.81,11965.802 5405.445,11740.322 5479.656,11553.756C5688.652,11028.345 5534.326,10679.777 5534.326,10679.777C5485.285,10577.662 5528.374,10454.943 5630.489,10405.902C5732.604,10356.861 5855.323,10399.95 5904.364,10502.065C5904.364,10502.065 6077.749,10843.619 5960.251,11383.501C6111.919,10955.884 6095.384,10841.305 6087.895,10814.409C6063.907,10728.257 6090.963,10679.827 6100.739,10660.275C6151.4,10558.954 6274.789,10517.824 6376.111,10568.485C6435.426,10598.142 6474.112,10652.725 6485.831,10713.214C6498.294,10765.538 6541.565,11058.067 6222.215,11848.198C6075.812,12210.424 5689.186,12635.862 5240.03,12628.58C5225.329,12628.342 5211.011,12626.56 5197.229,12623.392C5126.65,12665.764 5052.339,12697.092 4974.97,12714.947C4946.515,12721.513 4918.066,12721.806 4891.075,12716.732C4864.9,12721.284 4837.41,12720.797 4809.915,12714.452C4724.323,12694.699 4639.687,12657.636 4558.074,12606.865Z" style="fill:none;stroke:white;stroke-width:166.67px;"/>
            <path d="M4558.074,12606.865C4531.36,12620.292 4501.291,12628.064 4469.417,12628.58C4020.261,12635.862 3633.635,12210.424 3487.233,11848.198C3167.882,11058.067 3211.153,10765.538 3223.616,10713.214C3235.335,10652.725 3274.022,10598.142 3333.337,10568.485C3434.658,10517.824 3558.048,10558.954 3608.708,10660.275C3618.484,10679.827 3645.54,10728.257 3621.552,10814.409C3613.17,10844.513 3593.455,10984.467 3810.952,11550.271C3607.946,10909.408 3819.66,10492.348 3819.66,10492.348C3868.701,10390.234 3991.42,10347.144 4093.535,10396.185C4195.65,10445.226 4238.739,10567.945 4189.698,10670.06C4189.698,10670.06 4035.371,11018.628 4244.367,11544.04C4314.696,11720.845 4437.001,11935.107 4588.285,12099.028C4546.585,11939.846 4526.748,11766.075 4546.278,11595.46C4559.161,11482.914 4660.993,11402.001 4773.539,11414.883C4886.084,11427.766 4966.998,11529.598 4954.115,11642.144C4930.64,11847.222 4987.7,12058.56 5064.36,12215.454C5093.534,12190.21 5121.433,12161.728 5148.301,12131.366C5294.81,11965.802 5405.445,11740.322 5479.656,11553.756C5688.652,11028.345 5534.326,10679.777 5534.326,10679.777C5485.285,10577.662 5528.374,10454.943 5630.489,10405.902C5732.604,10356.861 5855.323,10399.95 5904.364,10502.065C5904.364,10502.065 6077.749,10843.619 5960.251,11383.501C6111.919,10955.884 6095.384,10841.305 6087.895,10814.409C6063.907,10728.257 6090.963,10679.827 6100.739,10660.275C6151.4,10558.954 6274.789,10517.824 6376.111,10568.485C6435.426,10598.142 6474.112,10652.725 6485.831,10713.214C6498.294,10765.538 6541.565,11058.067 6222.215,11848.198C6075.812,12210.424 5689.186,12635.862 5240.03,12628.58C5225.329,12628.342 5211.011,12626.56 5197.229,12623.392C5126.65,12665.764 5052.339,12697.092 4974.97,12714.947C4946.515,12721.513 4918.066,12721.806 4891.075,12716.732C4864.9,12721.284 4837.41,12720.797 4809.915,12714.452C4724.323,12694.699 4639.687,12657.636 4558.074,12606.865Z" style="fill:rgb(0,0,255);"/>
        </g>
    </g>
</svg>
